<?xml version="1.0" standalone="no"?><!DOCTYPE svg PUBLIC "-//W3C//DTD SVG 1.1//EN" "http://www.w3.org/Graphics/SVG/1.1/DTD/svg11.dtd"><svg t="1481789009861" class="icon" style="" viewBox="0 0 1025 1024" version="1.1" xmlns="http://www.w3.org/2000/svg" p-id="1593" xmlns:xlink="http://www.w3.org/1999/xlink" width="200.1953125" height="200"><defs><style type="text/css"></style></defs><path d="M572.094464 252.588032c7.647232 0.598016 8.538112-8.280064 8.538112-8.280064-0.01024-0.01024 0.397312-3.567616 1.798144-9.445376 4.163584-18.161664 17.225728-52.885504 48.238592-58.34752 2.443264-0.509952 5.025792-0.729088 7.694336-0.729088 20.926464-0.198656 46.280704 15.456256 55.148544 38.189056 7.411712 18.2272 12.832768 60.145664 15.843328 96.489472 3.104768 36.466688 4.163584 67.85024 4.182016 67.907584l17.659904 0c0.018432-0.057344 1.087488-31.440896 4.192256-67.907584 3.018752-36.343808 8.441856-78.260224 15.833088-96.489472 8.859648-22.7328 34.22208-38.387712 55.138304-38.189056 2.697216 0 5.26336 0.217088 7.723008 0.720896 31.004672 5.459968 44.075008 40.194048 48.2304 58.34752 1.3824 5.87776 1.798144 9.435136 1.798144 9.455616 0 0 0.88064 8.87808 8.527872 8.280064 5.271552-0.405504 8.23296-4.900864 7.3728-10.145792-0.086016-0.559104-6.729728-69.496832-62.86336-81.657856-3.567616-0.700416-7.163904-1.01376-10.788864-1.01376-28.09856 0.198656-57.97888 18.835456-69.98016 48.248832-6.322176 16.128-10.825728 43.23328-14.016512 71.104512-3.180544-27.871232-7.675904-54.96832-13.99808-71.09632-12.009472-29.415424-41.887744-48.050176-70.006784-48.259072-3.606528 0-7.192576 0.311296-10.76224 1.021952-56.152064 12.161024-62.777344 81.09056-62.861312 81.649664C563.859456 247.68512 566.812672 252.19072 572.094464 252.588032z" p-id="1594" fill="#66ccff"></path><path d="M852.180992 646.938624c12.189696 0 22.089728-9.889792 22.089728-22.099968 0-12.218368-9.900032-22.099968-22.089728-22.099968-12.199936 0-22.10816 9.8816-22.10816 22.099968C830.072832 637.048832 839.981056 646.938624 852.180992 646.938624z" p-id="1595" fill="#66ccff"></path><path d="M997.533696 793.475072c-9.275392 5.982208-10.86464 19.10784-18.747392 26.9824-8.413184 8.450048-18.24768 15.067136-29.198336 19.703808-11.282432 4.777984-23.330816 7.221248-35.74784 7.221248-12.417024 0-24.436736-2.443264-35.74784-7.221248-10.940416-4.636672-20.783104-11.25376-29.216768-19.703808-7.856128-7.87456-9.455616-21.00224-18.692096-26.9824-0.681984-0.434176-1.61792-0.823296-2.650112-1.183744-1.957888-1.202176-5.12-1.646592-8.460288-1.542144-3.559424-0.161792-6.946816 0.284672-9.009152 1.572864-1.00352 0.350208-1.902592 0.72704-2.566144 1.155072-9.275392 5.982208-10.8544 19.10784-18.7392 26.9824-8.431616 8.450048-18.266112 15.067136-29.198336 19.703808-11.319296 4.777984-23.339008 7.221248-35.756032 7.221248-12.408832 0-24.426496-2.443264-35.756032-7.221248-10.921984-4.636672-20.754432-11.25376-29.188096-19.703808-7.8848-7.87456-9.463808-21.00224-18.7392-26.9824-0.661504-0.425984-1.570816-0.804864-2.584576-1.155072-2.054144-1.288192-5.441536-1.732608-8.99072-1.572864-3.350528-0.104448-6.520832 0.342016-8.470528 1.542144-1.032192 0.360448-1.959936 0.74752-2.639872 1.183744-9.275392 5.982208-10.838016 19.10784-18.692096 26.9824-8.452096 8.450048-18.284544 15.067136-29.198336 19.703808-11.327488 4.777984-23.36768 7.221248-35.784704 7.221248-12.398592 0-24.426496-2.443264-35.74784-7.221248-10.948608-4.636672-20.783104-11.25376-29.216768-19.703808-7.87456-7.87456-9.435136-21.00224-18.720768-26.9824-0.663552-0.425984-1.572864-0.804864-2.574336-1.155072-2.054144-1.288192-5.441536-1.732608-8.99072-1.572864-3.360768-0.104448-6.539264 0.342016-8.4992 1.562624-1.01376 0.350208-1.931264 0.73728-2.592768 1.163264-9.283584 5.982208-10.86464 19.10784-18.7392 26.9824-8.452096 8.450048-18.24768 15.067136-29.198336 19.703808-11.319296 4.777984-23.349248 7.221248-35.766272 7.221248-12.417024 0-24.436736-2.443264-35.745792-7.221248-10.940416-4.636672-20.754432-11.25376-29.216768-19.703808-7.85408-7.87456-9.435136-21.00224-18.710528-26.9824-0.671744-0.425984-1.581056-0.815104-2.592768-1.163264-1.968128-1.220608-5.148672-1.665024-8.50944-1.562624-3.549184-0.161792-6.928384 0.284672-8.98048 1.572864-1.01376 0.350208-1.921024 0.72704-2.584576 1.155072-9.25696 5.982208-10.856448 19.10784-18.72896 26.9824-8.441856 8.450048-18.276352 15.067136-29.198336 19.703808-11.329536 4.777984-23.349248 7.221248-35.766272 7.221248-12.406784 0-24.426496-2.443264-35.766272-7.221248-10.911744-4.636672-20.727808-11.25376-29.198336-19.703808-7.86432-7.87456-9.435136-21.00224-18.720768-26.9824-4.5056-2.906112-18.352128-4.38272-21.428224 0-26.281984 37.441536 56.7296 73.775104 105.111552 73.775104 29.7472 0 72.525824-13.733888 95.012864-33.011712 22.48704 19.279872 65.284096 33.011712 95.021056 33.011712 29.7472 0 72.544256-13.74208 95.031296-33.011712 22.48704 19.269632 65.275904 33.011712 95.012864 33.011712 29.7472 0 72.544256-13.74208 95.031296-33.011712 22.4768 19.269632 65.275904 33.011712 95.012864 33.011712 29.73696 0 72.536064-13.74208 95.023104-33.011712 22.48704 19.269632 65.275904 33.011712 95.012864 33.011712 48.381952 0 131.411968-36.333568 105.138176-73.775104C1015.896064 789.092352 1002.039296 790.587392 997.533696 793.475072z" p-id="1596" fill="#66ccff"></path><path d="M224.524288 703.09888c-1.646592 3.055616-3.454976 6.00064-5.87776 8.423424-8.441856 8.452096-18.276352 15.067136-29.198336 19.703808-11.329536 4.769792-23.349248 7.202816-35.766272 7.202816-12.406784 0-24.426496-2.433024-35.766272-7.202816-10.911744-4.636672-20.727808-11.25376-29.198336-19.703808-7.86432-7.87456-9.435136-21.00224-18.720768-26.9824-4.5056-2.914304-18.352128-4.39296-21.428224 0-26.281984 37.439488 56.7296 73.775104 105.111552 73.775104 29.7472 0 72.525824-13.73184 95.012864-33.011712 22.48704 19.279872 65.284096 33.011712 95.021056 33.011712 29.7472 0 72.544256-13.74208 95.031296-33.011712 22.48704 19.269632 65.275904 33.011712 95.012864 33.011712 29.7472 0 72.544256-13.74208 95.031296-33.011712 22.4768 19.269632 65.275904 33.011712 95.012864 33.011712 29.73696 0 72.536064-13.74208 95.023104-33.011712 22.48704 19.269632 65.275904 33.011712 95.012864 33.011712 48.381952 0 131.411968-36.333568 105.138176-73.775104-3.084288-4.39296-16.941056-2.914304-21.446656 0-9.275392 5.98016-10.86464 19.10784-18.747392 26.9824-8.413184 8.452096-18.24768 15.067136-29.198336 19.703808-5.773312 2.443264-11.74528 4.2496-17.85856 5.451776 3.909632-22.523904 10.496-65.540096 9.029632-92.295168-7.75168-141.008896-92.106752-246.839296-220.02688-250.2656-187.686912-4.99712-275.26144 147.662848-330.334208 170.17856-47.60576 19.48672-139.286528-1.9968-201.381888-20.84864 13.391872-16.818176 34.11968-46.821376 44.97408-83.011584 11.261952-37.525504-36.286464-131.393536-36.286464-131.393536s-13.760512 68.84352-36.286464 95.107072c-18.427904 21.49376-23.773184 57.561088-23.773184 57.561088s-16.26112-25.032704-52.566016-37.535744c-50.208768-17.309696-85.07392-65.077248-85.07392-65.077248s1.24928 106.369024 37.535744 132.642816c36.560896 26.4704 87.109632 47.22688 100.44416 52.488192C151.279616 599.390208 177.108992 651.737088 224.524288 703.09888zM21.116928 426.012672c15.474688 13.099008 35.35872 26.556416 58.339328 34.48832 29.698048 10.268672 43.630592 30.531584 43.771904 30.74048 3.24608 4.845568 8.706048 7.667712 14.395392 7.667712 1.230848 0 2.527232-0.12288 3.784704-0.415744 6.946816-1.560576 12.25728-7.184384 13.334528-14.204928 1.286144-8.726528 7.438336-34.48832 19.789824-48.902144 11.413504-13.316096 20.529152-34.658304 27.154432-54.523904 11.47904 29.85984 19.912704 60.71296 15.757312 74.616832-9.74848 32.520192-28.192768 59.918336-41.945088 77.201408-3.567616 4.48512-4.683776 10.448896-2.971648 15.900672 1.703936 5.470208 5.9904 9.74848 11.481088 11.403264 43.962368 13.3632 107.0592 29.282304 157.779968 29.282304 22.052864 0 40.583168-3.018752 55.140352-8.962048 18.62656-7.61856 37.705728-25.298944 61.878272-47.7184 55.23456-51.202048 130.873344-121.32352 252.934144-121.32352 2.820096 0 5.668864 0.036864 8.527872 0.13312 118.919168 3.180544 189.001728 100.95616 202.725376 224.333824 3.530752 31.791104-7.163904 83.08736-11.640832 102.58432-11.528192-0.303104-22.714368-2.63168-33.257472-7.079936-10.940416-4.636672-20.783104-11.25376-29.216768-19.703808-7.856128-7.87456-9.455616-21.00224-18.692096-26.9824-0.681984-0.436224-1.61792-0.823296-2.650112-1.183744-1.978368-1.220608-5.177344-1.665024-8.556544-1.552384-3.510272-0.161792-6.8608 0.292864-8.904704 1.570816-1.00352 0.350208-1.912832 0.739328-2.574336 1.165312-9.275392 5.98016-10.8544 19.10784-18.7392 26.9824-8.431616 8.452096-18.266112 15.067136-29.198336 19.703808-11.319296 4.769792-23.339008 7.202816-35.756032 7.202816-12.408832 0-24.426496-2.433024-35.756032-7.202816-10.921984-4.636672-20.754432-11.25376-29.188096-19.703808-7.8848-7.87456-9.463808-21.00224-18.7392-26.9824-0.661504-0.436224-1.581056-0.813056-2.592768-1.173504-2.043904-1.267712-5.38624-1.722368-8.886272-1.562624-3.38944-0.12288-6.596608 0.331776-8.564736 1.552384-1.032192 0.360448-1.959936 0.74752-2.639872 1.183744-9.275392 5.98016-10.838016 19.10784-18.692096 26.9824-8.452096 8.452096-18.284544 15.067136-29.198336 19.703808-11.327488 4.769792-23.36768 7.202816-35.784704 7.202816-12.398592 0-24.426496-2.433024-35.74784-7.202816-10.948608-4.636672-20.783104-11.25376-29.216768-19.703808-7.87456-7.87456-9.435136-21.00224-18.720768-26.9824-0.663552-0.425984-1.572864-0.813056-2.584576-1.165312-2.043904-1.277952-5.38624-1.732608-8.886272-1.570816-3.407872-0.12288-6.617088 0.331776-8.593408 1.562624-1.01376 0.360448-1.931264 0.73728-2.592768 1.173504-9.283584 5.98016-10.86464 19.10784-18.7392 26.9824-8.452096 8.452096-18.24768 15.067136-29.198336 19.703808-11.319296 4.769792-23.349248 7.202816-35.766272 7.202816-12.417024 0-24.436736-2.433024-35.745792-7.202816-10.940416-4.636672-20.754432-11.25376-29.216768-19.703808-7.85408-7.87456-9.435136-21.00224-18.710528-26.9824-0.671744-0.436224-1.581056-0.813056-2.592768-1.173504-1.988608-1.230848-5.206016-1.685504-8.603648-1.562624-3.50208-0.161792-6.842368 0.292864-8.87808 1.562624-1.01376 0.360448-1.931264 0.73728-2.592768 1.173504-1.335296 0.86016-2.480128 1.900544-3.538944 3.028992-42.72128-47.407104-66.818048-95.352832-79.689728-129.462272-1.722368-4.560896-5.289984-8.196096-9.834496-9.975808-9.87136-3.88096-60.940288-24.532992-96.649216-50.378752C34.490368 488.192 25.735168 457.472 21.116928 426.012672z" p-id="1597" fill="#66ccff"></path></svg>